<svg fill="#495567" height="200px" width="200px" version="1.1" id="Capa_1" xmlns="http://www.w3.org/2000/svg" xmlns:xlink="http://www.w3.org/1999/xlink" viewBox="-142.66 -142.66 760.84 760.84" xml:space="preserve"><g id="SVGRepo_bgCarrier" stroke-width="0"><rect x="-142.66" y="-142.66" width="760.84" height="760.84" rx="380.42" fill="#FCB72B" strokewidth="0"></rect></g><g id="SVGRepo_tracerCarrier" stroke-linecap="round" stroke-linejoin="round"></g><g id="SVGRepo_iconCarrier"> <g> <path d="M237.762,57.173c7.959,0,14.434-6.47,14.434-14.422V14.447C252.196,6.482,245.721,0,237.762,0 c-7.96,0-14.435,6.482-14.435,14.447v28.304C223.327,50.703,229.802,57.173,237.762,57.173z"></path> <path d="M133.152,74.748c2.636,4.423,7.428,7.171,12.506,7.171c2.562,0,5.057-0.683,7.22-1.974c3.334-1.92,5.717-5.017,6.712-8.728 c0.995-3.709,0.486-7.601-1.443-10.978l-14.171-24.518c-2.567-4.467-7.359-7.242-12.506-7.242c-2.529,0-5.031,0.673-7.24,1.95 c-3.327,1.929-5.704,5.048-6.693,8.784c-0.987,3.73-0.469,7.615,1.45,10.926L133.152,74.748z"></path> <path d="M46.47,133.259l24.474,14.094c2.19,1.3,4.695,1.986,7.244,1.986c5.123,0,9.922-2.76,12.539-7.228 c3.964-6.859,1.598-15.707-5.298-19.736l-24.522-14.146c-2.189-1.269-4.683-1.938-7.211-1.938c-5.174,0-9.979,2.783-12.525,7.237 C37.22,120.346,39.575,129.184,46.47,133.259z"></path> <path d="M67.938,227.007c0-7.965-6.475-14.445-14.435-14.445H25.199c-7.959,0-14.435,6.481-14.435,14.445 c0,7.967,6.475,14.448,14.435,14.448h28.305C61.463,241.455,67.938,234.974,67.938,227.007z"></path> <path d="M78.23,304.697c-2.522,0-5.019,0.667-7.237,1.938l-24.514,14.168c-3.356,1.923-5.754,5.03-6.754,8.748 c-0.999,3.713-0.485,7.592,1.423,10.884c2.544,4.489,7.338,7.277,12.51,7.277c2.533,0,5.029-0.659,7.237-1.918l24.579-14.154 c6.855-4.052,9.21-12.906,5.256-19.729C88.167,307.462,83.377,304.697,78.23,304.697z"></path> <path d="M429.06,320.813l-24.525-14.175c-2.19-1.27-4.683-1.94-7.208-1.94c-5.117,0-9.912,2.75-12.528,7.203 c-3.959,6.833-1.604,15.688,5.299,19.768l24.551,14.138c2.189,1.247,4.668,1.906,7.167,1.906c5.103,0,9.897-2.736,12.549-7.207 c1.92-3.352,2.429-7.239,1.434-10.948C434.799,325.835,432.4,322.727,429.06,320.813z"></path> <path d="M450.323,212.561H422.02c-7.96,0-14.436,6.481-14.436,14.445c0,7.967,6.476,14.448,14.436,14.448h28.304 c7.96,0,14.435-6.481,14.435-14.448C464.758,219.042,458.283,212.561,450.323,212.561z"></path> <path d="M397.336,149.339c2.55,0,5.055-0.688,7.187-1.953l24.513-14.117c3.349-1.911,5.748-5.019,6.755-8.752 c1.01-3.742,0.499-7.646-1.424-10.964c-2.562-4.48-7.358-7.263-12.517-7.263c-2.519,0-5.012,0.666-7.225,1.934l-24.576,14.178 c-6.839,4.043-9.196,12.884-5.215,19.774C387.477,146.595,392.267,149.339,397.336,149.339z"></path> <path d="M322.619,79.88c2.189,1.3,4.694,1.987,7.246,1.987c5.099,0,9.891-2.729,12.543-7.185l14.119-24.529 c1.935-3.338,2.447-7.234,1.443-10.971c-1.004-3.732-3.401-6.846-6.712-8.743c-2.193-1.282-4.69-1.96-7.221-1.96 c-5.139,0-9.925,2.775-12.484,7.231l-14.175,24.524c-1.932,3.333-2.445,7.216-1.446,10.933 C316.934,74.889,319.333,77.997,322.619,79.88z"></path> <path d="M237.762,85.692c-81.751,0-148.26,64.474-148.26,143.723c0,50.874,20.45,80.873,35.385,102.783 c7.326,10.733,11.774,17.562,11.774,21.879c0,9.352,1.2,24.889,2.259,38.596c0.828,10.718,1.61,20.842,1.61,25.281 c0,15.134,11.726,21.736,19.485,26.107c2.079,1.171,4.043,2.276,5.817,3.464c0.903,0.682,2.781,3.753,4.023,5.785 c5.08,8.308,13.582,22.213,33.73,22.213h68.396c21.314,0,30.294-13.851,35.659-22.126c1.336-2.062,3.356-5.176,4.31-5.804 c1.767-1.16,3.679-2.232,5.705-3.366c7.846-4.396,19.702-11.037,19.702-26.272c0-4.973,0.314-15.389,0.646-26.416 c0.402-13.349,0.858-28.477,0.858-37.461c0-4.309,4.486-11.205,11.871-22.046l0.069-0.102 c14.025-20.568,35.221-51.652,35.221-102.515C386.021,150.166,319.512,85.692,237.762,85.692z M332.624,319.536l-0.072,0.105 c-8.767,12.869-15.691,23.034-15.691,34.436c0,8.652-0.451,23.605-0.848,36.798c-0.352,11.685-0.656,21.774-0.656,27.079 c0,1.844-1.052,2.933-8.454,7.078c-2.165,1.213-4.618,2.587-7.035,4.176c-4.817,3.166-7.801,7.769-10.687,12.221 c-5.152,7.947-8.257,12.094-17.199,12.094h-68.396c-7.107,0-9.882-3.383-14.961-11.689c-2.811-4.598-5.718-9.352-10.529-12.573 c-2.503-1.676-5.044-3.107-7.286-4.369c-7.249-4.082-8.28-5.147-8.28-6.936c0-5.288-0.776-15.338-1.675-26.976 c-1.028-13.31-2.194-28.397-2.194-36.901c0-11.421-6.545-21.01-15.6-34.276c-14.061-20.626-31.56-46.297-31.56-90.386 c0-67.118,56.64-121.723,126.26-121.723c69.62,0,126.26,54.605,126.26,121.723C364.021,273.491,346.613,299.022,332.624,319.536z"></path> <path d="M276.35,231.018c-2.246-5.196-7.355-8.554-13.018-8.554c-0.228,0-51.087,0-51.142,0c-5.663,0-10.773,3.357-13.018,8.554 l-27.324,63.186c-1.503,3.476-1.563,7.328-0.169,10.849c1.395,3.521,4.077,6.287,7.552,7.789c1.795,0.775,3.687,1.169,5.621,1.169 c5.66,0,10.77-3.357,13.016-8.553l4.975-11.505v120.566c0,8.608,7.003,15.611,15.611,15.611s15.612-7.003,15.612-15.611v-82.717 h6.622v82.717c0,8.608,7.003,15.611,15.611,15.611c8.608,0,15.612-7.003,15.612-15.611V292.178l5.742,13.279 c2.247,5.195,7.356,8.553,13.016,8.553c1.935,0,3.826-0.394,5.621-1.169c3.476-1.502,6.158-4.268,7.552-7.789 c1.395-3.52,1.335-7.373-0.168-10.849L276.35,231.018z"></path> <path d="M235.983,217.269c19.697,0,35.721-16.028,35.721-35.73c0-19.701-16.024-35.729-35.721-35.729 c-19.701,0-35.729,16.028-35.729,35.729C200.254,201.24,216.282,217.269,235.983,217.269z"></path> </g> </g></svg>